<svg fill="none" xmlns="http://www.w3.org/2000/svg" viewBox="0 0 220 42"><rect width="220" height="42" rx="5" fill="#fff"/><g clip-path="url(#a)" fill="#000"><path d="M131.09 17.1c-1.53 0-2.28 1.18-2.63 1.95-.2.43-.25.77-.4.77-.23 0-.07-.3-.25-.95-.24-.86-.95-1.78-2.48-1.78-1.6 0-2.29 1.34-2.61 2.08-.22.5-.22.65-.4.65-.24 0-.04-.4.07-.87.22-.93.05-1.64.05-1.64h-2.54v9.46h3.47v-4.7c0-.93.4-2.11 1.07-2.11.77 0 .93.59.93 1.68v5.14h3.48v-4.71c0-.83.34-2.11 1.07-2.11.8 0 .93.83.93 1.68v5.13h3.42v-5.56c0-2.47-.88-4.12-3.18-4.12Zm58.87 0c-1.52 0-2.28 1.18-2.63 1.95-.19.43-.24.77-.4.77-.22 0-.07-.38-.24-.95-.26-.85-.89-1.78-2.48-1.78-1.6 0-2.3 1.34-2.62 2.08-.22.5-.22.65-.4.65-.24 0-.03-.4.08-.87.22-.93.05-1.64.05-1.64h-2.54v9.46h3.47v-4.7c0-.93.39-2.11 1.06-2.11.78 0 .93.59.93 1.68v5.14h3.49v-4.71c0-.83.34-2.11 1.07-2.11.78 0 .92.83.92 1.68v5.13h3.43v-5.56c0-2.47-.89-4.12-3.19-4.12Zm-49.76 0c-2.67 0-4.57.96-4.57.96v2.85s2.1-1.2 3.81-1.2c1.36 0 1.53.73 1.47 1.33 0 0-.4-.1-1.6-.1-2.82 0-4.25 1.27-4.25 3.3 0 1.94 1.6 2.75 2.96 2.75a3.25 3.25 0 0 0 3.1-1.93c.19-.43.22-.73.39-.73.19 0 .12.21.11.64-.01.76.02 1.32.14 1.8h2.62v-4.65c0-2.9-1.04-5.02-4.19-5.02Zm-.85 7.46c-.83.2-1.26-.06-1.26-.6 0-.75.78-1.05 1.89-1.05.49 0 .95.04.95.04 0 .32-.7 1.41-1.58 1.61Zm14.21-10.11h-3.47v12.33h3.47V14.45Zm3.82 7.6c0-.86.8-1.63 2.26-1.63 1.6 0 2.88.76 3.17.93v-3.29s-1.01-.96-3.5-.96c-2.64 0-4.82 1.52-4.82 4.8s1.98 5.1 4.8 5.1c2.21 0 3.53-1.2 3.53-1.2v-3.13c-.42.23-1.58 1.02-3.16 1.02-1.68 0-2.28-.76-2.28-1.64Zm12.46-4.95c-2.01 0-2.77 1.88-2.93 2.2-.15.34-.23.52-.35.52-.22 0-.07-.4.01-.66.17-.48.5-1.75.5-3.3 0-1.06-.14-1.41-.14-1.41h-2.99v12.33h3.47v-4.71c0-.77.3-2.1 1.18-2.1.73 0 .95.52.95 1.6v5.2h3.47v-5c0-2.43-.4-4.67-3.17-4.67Zm4.3.23v9.45h3.47v-9.45s-.59.33-1.74.33a3.8 3.8 0 0 1-1.73-.33Zm1.72-.23c1.17 0 2.13-.62 2.13-1.38 0-.75-.96-1.37-2.13-1.37s-2.12.62-2.12 1.37c0 .76.95 1.38 2.12 1.38Zm-30.36.23v9.45h3.47v-9.45s-.58.33-1.73.33-1.74-.33-1.74-.33Zm1.72-.23c1.18 0 2.13-.62 2.13-1.38 0-.75-.95-1.37-2.13-1.37-1.17 0-2.12.62-2.12 1.37 0 .76.95 1.38 2.13 1.38Zm52.81 0c-1.78 0-2.6 1.32-2.95 2.07-.24.5-.22.65-.4.65-.24 0-.04-.4.07-.87.22-.93.06-1.64.06-1.64h-2.54V29.4h3.47v-3.83a2.72 2.72 0 0 0 2.34 1.42c2.5 0 3.77-2.1 3.77-4.94 0-3.21-1.51-4.95-3.81-4.95Zm-.95 7.64c-.8 0-1.38-1-1.38-2.39 0-1.35.6-2.39 1.36-2.39.96 0 1.37.88 1.37 2.4 0 1.57-.38 2.38-1.35 2.38Zm-91.43-4.79c.23-.02.46-.03.66 0 .12-.27.14-.73.03-1.24-.16-.75-.37-1.2-.81-1.14-.45.07-.47.62-.3 1.37.08.43.24.79.42 1.01Zm-3.82.6c.32.14.52.23.6.15.04-.05.03-.15-.05-.27a1.86 1.86 0 0 0-.82-.65c-.7-.3-1.53-.2-2.18.25-.21.16-.41.37-.39.5.01.04.05.08.12.09.17.02.79-.3 1.5-.33.5-.03.9.12 1.22.26Zm-.63.36c-.42.06-.65.2-.8.33-.12.1-.2.22-.2.3a.1.1 0 0 0 .1.1c.1 0 .3-.07.3-.07.58-.2.96-.18 1.34-.14.2.02.3.04.35-.04.01-.02.03-.06-.01-.13-.1-.15-.52-.42-1.09-.35Zm3.16 1.33c.28.13.6.08.7-.12.1-.2-.05-.48-.33-.62-.29-.14-.6-.08-.7.12-.1.2.05.48.33.62Zm1.81-1.57c-.23 0-.42.25-.42.56 0 .3.17.56.4.56s.42-.24.42-.55c0-.31-.17-.56-.4-.57Zm-15.35 5.59c-.05-.07-.15-.04-.24-.02-.06.01-.13.03-.2.03a.46.46 0 0 1-.4-.2c-.1-.16-.1-.4.02-.66l.05-.13c.18-.4.5-1.08.15-1.73a1.54 1.54 0 0 0-2.5-.39c-.5.55-.59 1.3-.49 1.57.04.1.1.12.14.13.08 0 .2-.06.29-.27l.02-.07c.03-.1.1-.32.21-.48a.93.93 0 0 1 1.27-.26c.36.22.5.65.34 1.06-.08.21-.2.62-.18.95.06.68.48.95.86.98.36.01.62-.2.68-.34.04-.09 0-.14-.02-.17Z"/><path d="M113.93 25.03c-.01-.05-.1-.37-.23-.77-.12-.4-.25-.67-.25-.67.5-.75.5-1.4.44-1.78a2.23 2.23 0 0 0-.66-1.27 5.4 5.4 0 0 0-2.33-1.15l-.6-.16-.05-1.98a6.7 6.7 0 0 0-.27-1.73 4.63 4.63 0 0 0-1.21-2.14c1.48-1.52 2.4-3.2 2.4-4.63 0-2.77-3.43-3.6-7.65-1.87l-.9.38-1.64-1.6c-4.8-4.15-19.85 12.4-15.04 16.43l1.05.88a4.68 4.68 0 0 0 1.33 5.35 4.96 4.96 0 0 0 3.19 1.27c1.87 4.28 6.15 6.9 11.16 7.04 5.38.16 9.9-2.34 11.8-6.83.11-.31.64-1.73.64-2.99 0-1.26-.72-1.78-1.18-1.78ZM91.92 28.4c-.16.02-.33.03-.5.03-1.62-.04-3.38-1.5-3.55-3.21-.2-1.9.78-3.36 2.52-3.7.2-.05.46-.07.73-.06.97.05 2.4.8 2.73 2.89.29 1.86-.17 3.75-1.93 4.05Zm-1.82-8.02c-1.08.2-2.03.81-2.6 1.65-.36-.29-1-.85-1.12-1.06-.93-1.75 1.01-5.15 2.37-7.07 3.36-4.74 8.61-8.33 11.05-7.67.4.1 1.7 1.61 1.7 1.61s-2.43 1.34-4.69 3.2a21.1 21.1 0 0 0-6.7 9.34Zm17.06 7.3a.1.1 0 0 0 .06-.09.09.09 0 0 0-.1-.08s-2.55.37-4.95-.5c.26-.84.96-.54 2.01-.45 1.9.11 3.6-.16 4.86-.52 1.09-.31 2.52-.92 3.63-1.79.37.82.5 1.71.5 1.71s.3-.05.54.1c.23.14.4.43.28 1.18a6.5 6.5 0 0 1-1.85 3.58 7.6 7.6 0 0 1-2.22 1.65c-.45.23-.93.44-1.44.6-3.81 1.23-7.72-.12-8.97-3.03a6 6 0 0 1 1.09-6.36c.08-.09.17-.2.17-.33a.58.58 0 0 0-.13-.32c-.5-.72-2.23-1.94-1.88-4.3.25-1.69 1.74-2.88 3.14-2.8l.35.01c.6.04 1.13.11 1.63.13.83.04 1.58-.08 2.47-.81.3-.25.54-.46.94-.53.05 0 .15-.04.36-.03.22 0 .43.07.61.19.71.47.81 1.6.85 2.43l.1 1.95c.05.75.25.86.65.99l.75.22c.94.26 1.5.52 1.85.86.2.22.3.44.34.66.1.8-.63 1.79-2.59 2.69a13.27 13.27 0 0 1-7.16.96c-1.43-.19-2.25 1.65-1.39 2.9.56.82 2.07 1.34 3.58 1.34 3.47 0 6.13-1.46 7.12-2.73l.08-.11c.05-.07.01-.11-.05-.07-.8.55-4.4 2.72-8.25 2.07 0 0-.47-.08-.9-.24-.34-.13-1.05-.45-1.13-1.18 3.1.95 5.05.05 5.05.05Zm-4.92-.57ZM96.3 13.89a14.14 14.14 0 0 1 3.98-3.22c.04-.03.1.02.07.07-.1.18-.3.59-.37.89-.01.05.04.08.08.06a7.8 7.8 0 0 1 3.5-1.22c.05 0 .07.06.03.1-.2.14-.4.34-.55.54-.03.03 0 .08.04.08.88 0 2.11.31 2.92.76.05.03.01.13-.05.12a12.2 12.2 0 0 0-9.58 1.9c-.05.03-.11-.04-.07-.08Z"/></g><path d="M14.1 27h1.07v-4.16c0-1.22.91-1.82 1.8-1.82.93 0 1.44.5 1.44 1.69V27h1.08v-4.16c0-1.22.9-1.82 1.8-1.82.93 0 1.43.5 1.43 1.69V27h1.08v-4.21c0-1.98-1.06-2.7-2.29-2.7-.84 0-1.85.38-2.32 1.27-.35-.91-1.12-1.28-2-1.28-.97 0-1.7.52-2.02 1.16V20.2H14.1V27Zm13.53.12c1 0 1.6-.34 2.12-.98V27h1.07v-4.48c0-1.9-1.18-2.44-2.48-2.44-1.31 0-2.55.58-2.69 2.12h1.08c.1-.83.62-1.22 1.56-1.22 1.04 0 1.46.46 1.46 1.54V23h-.98c-1.74 0-3.4.53-3.4 2.1 0 1.4 1 2 2.26 2Zm.1-.86c-.95 0-1.29-.44-1.29-1.15 0-1 1-1.33 2.37-1.33h.94v.84c0 1.05-.88 1.64-2.02 1.64Zm7.78.86c.98 0 1.93-.63 2.32-1.29V27h1.08V16.95h-1.08v4.34a2.44 2.44 0 0 0-2.22-1.2c-1.87 0-3.17 1.46-3.17 3.54v.1c0 2.13 1.28 3.39 3.07 3.39Zm.11-.9c-1.14 0-2.06-.82-2.06-2.54v-.1c0-1.65.8-2.6 2.15-2.6 1.33 0 2.16.82 2.16 2.56v.1c0 1.75-.99 2.58-2.25 2.58Zm8.26.9c1.53 0 2.66-.72 2.9-2.08H45.7c-.15.79-.76 1.18-1.81 1.18-1.4 0-2.13-.86-2.18-2.4h5.12v-.36c0-2.43-1.48-3.38-3.06-3.38-1.87 0-3.18 1.43-3.18 3.49v.1c0 2.1 1.36 3.45 3.29 3.45Zm-2.14-4.18c.19-1.2.93-1.96 2.03-1.96 1.12 0 1.85.56 1.95 1.96h-3.98ZM53.3 27h1.18l1.59-5.1 1.41 5.1h1.2l2.12-6.8h-1.1l-1.6 5.47-1.55-5.47h-.94l-1.65 5.47-1.58-5.47H51.2l2.09 6.8Zm9.5-8.22c.4 0 .72-.32.72-.71a.72.72 0 0 0-.72-.72.72.72 0 0 0-.71.72c0 .39.32.71.71.71ZM62.27 27h1.08v-6.8h-1.08V27Zm5.36.1c.44 0 .7-.07.92-.15v-.91c-.24.09-.5.14-.83.14-.55 0-.85-.32-.85-.99v-4.08h1.59v-.9h-1.59v-1.56H65.8v1.55h-.97v.91h.97v4.19c0 1.06.6 1.8 1.84 1.8Zm2.55-.1h1.08v-4.12c0-1.22.9-1.86 1.9-1.86 1.09 0 1.6.53 1.6 1.73V27h1.07v-4.17c0-1.98-.98-2.75-2.39-2.75-1.12 0-1.87.56-2.18 1.2v-4.33h-1.08V27Z" fill="#000"/><defs><clipPath id="a"><path fill="#fff" transform="translate(85 5)" d="M0 0h118.85v31.64H0z"/></clipPath></defs></svg>